<svg width="190" height="201" viewBox="0 0 190 201" fill="none" xmlns="http://www.w3.org/2000/svg">
<g filter="url(#filter0_d_1023_985)">
<path d="M90.351 110.467L177.98 13.5196C176.262 12.4623 174.673 12.0724 174.039 11.1206C173.405 10.1689 166.902 8.08067 163.73 7.15552H151.041L142.318 12.3103L127.449 26.783C118.725 35.8368 101.081 54.0631 100.288 54.539C99.2963 55.1337 85.2201 71.9855 84.427 72.7786C83.7926 73.413 81.6514 80.9732 80.6602 84.674L83.2375 103.508L90.351 110.467Z" fill="#EEEBFF"/>
<path fill-rule="evenodd" clip-rule="evenodd" d="M131.185 44.4561C131.185 44.4561 163.407 9.69457 166.91 8.7314C170.412 7.76824 182.846 23.0913 183.488 28.8119C184.13 34.5617 177.096 51.782 177.096 51.782L147.121 84.1502C147.121 84.1502 150.419 60.7132 143.298 56.8897C136.176 53.0662 131.185 44.4561 131.185 44.4561Z" fill="#E5CBF9"/>
<path fill-rule="evenodd" clip-rule="evenodd" d="M91.3735 105.279C91.3735 105.279 89.0677 91.4738 93.5333 84.469C97.9988 77.4641 127.332 47.1682 127.332 47.1682C127.332 47.1682 139.765 54.4941 143.91 60.2439C148.054 65.9937 151.236 78.4273 147.091 84.1771C142.947 89.9269 121.903 110.329 121.903 110.329C121.903 110.329 115.511 115.757 112.009 115.757H97.0065L91.3442 105.308L91.3735 105.279Z" fill="#0000C9"/>
<path d="M181.802 11.7063C181.685 11.5604 181.539 11.4144 181.423 11.2685C180.751 10.5388 180.051 9.80916 179.292 9.10868C178.416 8.29144 177.482 7.53257 176.548 6.86128C173.338 4.52633 170.127 3.06699 167.53 2.19139C162.159 0.41099 156.468 0.0607507 150.981 1.11148C144.268 2.3957 137.876 5.78137 132.914 11.1809L82.4794 66.3733C76.3793 73.0571 73.5773 81.6088 73.9568 89.9854C74.3362 98.3912 77.9262 106.68 84.5808 112.78C91.2354 118.88 99.7871 121.682 108.193 121.303C116.599 120.923 124.859 117.363 130.959 110.679L181.394 55.4866C187.494 48.8028 190.296 40.251 189.916 31.8744C189.595 24.6069 186.851 17.4269 181.802 11.6771V11.7063ZM144.268 81.0542L123.428 103.849C119.226 108.461 113.534 110.912 107.726 111.175C101.918 111.438 95.9929 109.482 91.4105 105.279C86.799 101.076 84.3473 95.385 84.0846 89.5768C83.8219 83.7394 85.7483 77.8437 89.9512 73.2613L111.666 49.4741C115.694 48.7444 125.326 48.219 134.928 56.9751C146.282 67.3364 144.647 78.9528 144.239 81.0542H144.268ZM173.892 48.6568L154.016 70.4302C152.761 64.1259 149.522 56.4497 141.845 49.4449C134.636 42.8487 127.164 40.2218 121.006 39.3462L140.444 18.069C143.859 14.3331 148.237 12.0274 152.878 11.1226C157.665 10.2178 162.685 10.8307 167.15 12.9905C168.143 13.4575 169.077 14.0121 169.952 14.5958C170.828 15.2087 171.674 15.88 172.492 16.6097C177.074 20.8126 179.555 26.504 179.817 32.3122C180.08 38.1496 178.154 44.0453 173.951 48.6277L173.892 48.6568Z" fill="#8100E7"/>
</g>
<defs>
<filter id="filter0_d_1023_985" x="0.922852" y="0.521973" width="189.027" height="199.815" filterUnits="userSpaceOnUse" color-interpolation-filters="sRGB">
<feFlood flood-opacity="0" result="BackgroundImageFix"/>
<feColorMatrix in="SourceAlpha" type="matrix" values="0 0 0 0 0 0 0 0 0 0 0 0 0 0 0 0 0 0 127 0" result="hardAlpha"/>
<feOffset dx="-38" dy="44"/>
<feGaussianBlur stdDeviation="17.5"/>
<feComposite in2="hardAlpha" operator="out"/>
<feColorMatrix type="matrix" values="0 0 0 0 0 0 0 0 0 0 0 0 0 0 0 0 0 0 0.25 0"/>
<feBlend mode="normal" in2="BackgroundImageFix" result="effect1_dropShadow_1023_985"/>
<feBlend mode="normal" in="SourceGraphic" in2="effect1_dropShadow_1023_985" result="shape"/>
</filter>
</defs>
</svg>
